<?xml version="1.0" encoding="utf-8"?>
<!-- Generator: Adobe Illustrator 15.1.0, SVG Export Plug-In . SVG Version: 6.00 Build 0)  -->
<!DOCTYPE svg PUBLIC "-//W3C//DTD SVG 1.1//EN" "http://www.w3.org/Graphics/SVG/1.1/DTD/svg11.dtd">
<svg version="1.1" id="minnpost" xmlns="http://www.w3.org/2000/svg" xmlns:xlink="http://www.w3.org/1999/xlink" x="0px" y="0px" preserveAspectRatio="xMinYMin meet" viewBox="0 0 352.8 49.2" enable-background="new 0 0 352.8 49.2" xml:space="preserve">
<polygon id="M" points="41.7,48.4 41.7,17.4 29.7,48.4 24.3,48.4 12.3,17.4 12.3,48.4 0,48.4 0,0.8 17.1,0.8 27,26.6 37,0.8 54,0.8 
	54,48.4 "/>
<rect id="I" x="60.4" y="0.8" width="12.3" height="47.6"/>
<polygon id="N1" points="111.5,48.4 91.4,20.8 91.4,48.4 79.1,48.4 79.1,0.8 91.8,0.8 111,27 111,0.8 123.4,0.8 123.4,48.4 "/>
<polygon id="N2" points="162.2,48.4 142.1,20.8 142.1,48.4 129.8,48.4 129.8,0.8 142.4,0.8 161.7,27 161.7,0.8 174,0.8 174,48.4 "/>
<path id="P" fill="#801018" d="M180.5,48.4V0.8h23.8c10.7,0,16.6,7.2,16.6,15.8c0,8.6-5.9,15.8-16.6,15.8h-11.6v16H180.5z
	 M208.4,16.6c0-3.3-2.4-5.1-5.7-5.1h-9.9v10.2h9.9C205.9,21.7,208.4,19.8,208.4,16.6"/>
<path id="O" fill="#801018" d="M221.8,24.6c0-14.5,10.9-24.6,25.5-24.6s25.4,10.1,25.4,24.6c0,14.5-10.8,24.6-25.4,24.6
	S221.8,39.1,221.8,24.6 M260.2,24.6c0-7.8-5.1-13.8-12.9-13.8c-7.9,0-13,6-13,13.8c0,7.7,5.1,13.8,13,13.8
	C255.1,38.4,260.2,32.3,260.2,24.6"/>
<path id="S" fill="#801018" d="M272.6,41.7l6.5-9.2c3.4,3.4,8.7,6.3,15.2,6.3c4.2,0,6.8-1.6,6.8-3.9c0-6.5-27-1.3-27-19.6
	c0-8,6.8-15.1,19-15.1c7.6,0,14.3,2.3,19.3,6.6l-6.7,8.8c-4-3.3-9.2-4.9-13.9-4.9c-3.6,0-5.1,1.4-5.1,3.4c0,6.1,26.9,1.6,26.9,19.3
	c0,9.6-7.1,15.9-19.8,15.9C284.1,49.2,277.4,46.2,272.6,41.7"/>
<polygon id="T" fill="#801018" points="327.2,48.4 327.2,11.5 313.9,11.5 313.9,0.8 352.8,0.8 352.8,11.5 339.5,11.5 339.5,48.4 "/>
<rect x="-23.6" y="-13.8" display="none" fill="none" width="396" height="72"/>
</svg>
