<svg xmlns="http://www.w3.org/2000/svg" preserveAspectRatio="xMinYMin meet" viewBox="0 0 352.8 49.2"><path d="M41.7 48.4v-31l-12 31h-5.4l-12-31v31H0V.8h17.1L27 26.6 37 .8h17v47.6zM60.4.8h12.3v47.6H60.4zm51.1 47.6L91.4 20.8v27.6H79.1V.8h12.7L111 27V.8h12.4v47.6zm50.7 0-20.1-27.6v27.6h-12.3V.8h12.6L161.7 27V.8H174v47.6z"/><path fill="#801018" d="M180.5 48.4V.8h23.8c10.7 0 16.6 7.2 16.6 15.8 0 8.6-5.9 15.8-16.6 15.8h-11.6v16h-12.2zm27.9-31.8c0-3.3-2.4-5.1-5.7-5.1h-9.9v10.2h9.9c3.2 0 5.7-1.9 5.7-5.1m13.4 8c0-14.5 10.9-24.6 25.5-24.6s25.4 10.1 25.4 24.6c0 14.5-10.8 24.6-25.4 24.6s-25.5-10.1-25.5-24.6m38.4 0c0-7.8-5.1-13.8-12.9-13.8-7.9 0-13 6-13 13.8 0 7.7 5.1 13.8 13 13.8 7.8 0 12.9-6.1 12.9-13.8m12.4 17.1 6.5-9.2c3.4 3.4 8.7 6.3 15.2 6.3 4.2 0 6.8-1.6 6.8-3.9 0-6.5-27-1.3-27-19.6 0-8 6.8-15.1 19-15.1 7.6 0 14.3 2.3 19.3 6.6l-6.7 8.8c-4-3.3-9.2-4.9-13.9-4.9-3.6 0-5.1 1.4-5.1 3.4 0 6.1 26.9 1.6 26.9 19.3 0 9.6-7.1 15.9-19.8 15.9-9.7-.1-16.4-3.1-21.2-7.6m54.6 6.7V11.5h-13.3V.8h38.9v10.7h-13.3v36.9z"/></svg>