<?xml version="1.0" encoding="utf-8"?>
<!-- Generator: Adobe Illustrator 15.1.0, SVG Export Plug-In . SVG Version: 6.00 Build 0)  -->
<!DOCTYPE svg PUBLIC "-//W3C//DTD SVG 1.1//EN" "http://www.w3.org/Graphics/SVG/1.1/DTD/svg11.dtd">
<svg version="1.1" id="Layer_1" xmlns="http://www.w3.org/2000/svg" xmlns:xlink="http://www.w3.org/1999/xlink" x="0px" y="0px"
	 width="32px" height="32px" viewBox="0 0 32 32" enable-background="new 0 0 32 32" xml:space="preserve">
<polygon points="14.949,2.473 10.474,18.406 6.068,2.473 0,2.473 0,29.582 4.542,29.582 4.542,11.334 9.626,29.582 11.355,29.582 
	16.474,11.334 16.474,29.582 20.983,29.582 20.983,2.473 "/>
<g>
	<defs>
		<rect id="SVGID_1_" width="32" height="32"/>
	</defs>
	<clipPath id="SVGID_2_">
		<use xlink:href="#SVGID_1_"  overflow="visible"/>
	</clipPath>
	<path clip-path="url(#SVGID_2_)" fill="#862527" d="M16.438,29.582V2.473h8.339c4.677,0,7.052,4.024,7.052,8.657
		s-2.375,8.616-7.052,8.616H20.98v9.836H16.438z M27.183,11.13c0-2.357-1.188-3.861-2.948-3.861H20.98v7.722h3.254
		C25.995,14.991,27.183,13.447,27.183,11.13"/>
</g>
</svg>
