<?xml version="1.0" standalone="no"?>
<!DOCTYPE svg PUBLIC "-//W3C//DTD SVG 20010904//EN"
 "http://www.w3.org/TR/2001/REC-SVG-20010904/DTD/svg10.dtd">
<svg version="1.0" xmlns="http://www.w3.org/2000/svg"
 width="512.000000pt" height="512.000000pt" viewBox="0 0 512.000000 512.000000"
 preserveAspectRatio="xMidYMid meet">
<metadata>
Created by potrace 1.11, written by Peter Selinger 2001-2013
</metadata>
<g transform="translate(0.000000,512.000000) scale(0.100000,-0.100000)"
fill="#000000" stroke="none">
<path d="M0 4735 l0 -385 2560 0 2560 0 0 385 0 385 -2560 0 -2560 0 0 -385z"/>
<path d="M325 3788 c-3 -7 -4 -281 -3 -608 l3 -595 155 0 155 0 5 383 5 384
109 -284 c60 -156 127 -329 149 -386 l39 -103 70 3 70 3 147 377 c80 207 149
380 154 384 4 4 7 -167 7 -379 l0 -387 155 0 155 0 0 610 0 610 -217 -2 -218
-3 -32 -80 c-17 -44 -73 -189 -125 -322 -51 -133 -96 -239 -100 -235 -4 4 -47
113 -96 242 -50 129 -104 272 -122 318 l-32 82 -214 0 c-163 0 -216 -3 -219
-12z"/>
<path d="M1865 3788 c-3 -7 -4 -281 -3 -608 l3 -595 155 0 155 0 3 608 2 607
-155 0 c-115 0 -157 -3 -160 -12z"/>
<path d="M2340 3190 l0 -610 155 0 155 0 0 345 c0 190 3 345 8 345 4 -1 114
-148 245 -328 131 -180 244 -335 251 -345 12 -16 30 -17 162 -15 l149 3 0 605
0 605 -157 3 -158 3 -2 -331 -3 -330 -240 327 -240 328 -163 3 -162 2 0 -610z"/>
<path d="M3630 3190 l0 -610 155 0 155 0 0 345 c0 190 3 345 8 345 4 -1 120
-156 257 -345 l250 -345 150 3 150 2 0 605 0 605 -157 3 -158 3 -2 -331 -3
-330 -240 328 -241 327 -162 3 -162 2 0 -610z"/>
<path d="M1920 2403 c-52 -9 -157 -46 -210 -75 -129 -71 -235 -198 -281 -339
-21 -64 -24 -93 -24 -214 0 -111 4 -152 19 -195 71 -210 238 -364 451 -416
103 -26 268 -24 371 5 222 61 383 222 440 442 23 86 23 252 0 339 -58 217
-230 383 -452 440 -73 19 -239 26 -314 13z m288 -308 c65 -35 106 -81 141
-155 23 -49 26 -67 26 -165 0 -100 -3 -115 -28 -167 -36 -73 -111 -141 -180
-164 -78 -26 -182 -22 -249 8 -77 36 -123 80 -160 156 -31 63 -33 73 -33 172
1 112 11 149 62 223 32 46 99 95 157 113 25 9 74 13 126 11 72 -3 93 -8 138
-32z"/>
<path d="M3095 2400 c-59 -12 -141 -47 -190 -80 -103 -71 -158 -171 -159 -290
-1 -95 16 -154 63 -216 66 -88 165 -135 402 -189 206 -47 245 -72 219 -135
-25 -60 -110 -84 -238 -68 -94 11 -181 46 -257 103 -33 25 -62 45 -65 45 -13
-2 -161 -224 -156 -236 8 -20 82 -71 159 -110 104 -53 219 -77 367 -78 195 0
320 42 417 140 72 75 97 141 98 264 0 84 -3 101 -28 152 -57 117 -163 177
-422 240 -184 45 -228 67 -233 114 -12 120 260 107 460 -23 15 -9 29 -15 31
-13 2 3 41 54 86 113 94 123 96 106 -12 173 -111 69 -249 104 -402 103 -55 -1
-118 -5 -140 -9z"/>
<path d="M330 1780 l0 -610 160 0 160 0 0 204 0 204 213 4 212 3 65 31 c152
72 230 197 230 369 0 159 -75 291 -203 356 -87 45 -123 49 -489 49 l-348 0 0
-610z m657 315 c69 -41 82 -141 25 -197 -38 -39 -82 -47 -234 -48 l-128 0 0
136 0 136 153 -4 c129 -2 157 -6 184 -23z"/>
<path d="M3770 2255 l0 -135 170 0 170 0 0 -475 0 -475 160 0 160 0 0 475 0
475 170 0 170 0 0 135 0 135 -500 0 -500 0 0 -135z"/>
<path d="M0 385 l0 -385 2560 0 2560 0 0 385 0 385 -2560 0 -2560 0 0 -385z"/>
</g>
</svg>
