<svg version="1.0" xmlns="http://www.w3.org/2000/svg" width="400" height="400" viewBox="0 0 300 300"><path d="M20 107.5V143h18v-22.2c0-12.2.2-21.9.5-21.6.3.3 4.3 10.1 8.8 21.9l8.3 21.4h8.8l8.5-22 8.6-22 .3 22.2.2 22.3h18V71.9l-12.6.3-12.7.3L68.4 89c-3.5 9.1-6.9 17.6-7.5 19-1 2.2-1.7.6-8.3-16.5l-7.3-19-12.6-.3-12.7-.3v35.6zm90 0V143h18V72h-18v35.5zm28 0V143h18l.2-20.1.3-20.1 14.5 19.9 14.6 19.8 9.2.3 9.2.3V71.9l-9.2.3-9.3.3-.5 18.8-.5 18.9-13.9-19.1-14-19.1H138v35.5zm75.7-34.8c-.4.3-.7 16.3-.7 35.5V143h19l.2-19.9.3-19.8 14.5 19.8 14.4 19.9H279V72h-18v19.2l-.1 19.3-2.2-2.6c-1.2-1.4-7.7-10.1-14.4-19.2L232 72h-8.8c-4.9 0-9.2.3-9.5.7zM112 154.3c-8 1.8-14.5 5.5-19.6 10.9-7.3 7.8-8.9 12.4-8.9 25.3 0 10.6.1 11.2 3.4 17.3 4.1 7.5 9.4 12.5 17 16.1 5 2.3 6.8 2.6 17.1 2.6s12.1-.3 17-2.6c12.8-6.1 20-16.7 20.8-30.8.8-13.5-4.2-24.7-14.2-32.2-8.4-6.4-21.8-9.1-32.6-6.6zm16.6 16.8c6.7 2 11.7 10.3 11.7 19.4 0 12.4-7.7 20.5-19.3 20.5-13.3 0-22.1-11.9-19.1-25.6 1.3-5.6 5.3-11.3 9.5-13.6 4.7-2.6 10.2-2.8 17.2-.7zm54.6-17c-9.2 1.5-17.6 7.5-20.1 14.2-1.8 4.6-1.3 13.3.9 17.7 3.3 6.5 8.7 9.4 24.1 12.9 10.4 2.5 13.9 4.2 13.9 7 0 7.4-15.6 7.7-27.6.5-3.1-1.9-6-3.1-6.4-2.7-2.4 2.9-8 11.5-8 12.3 0 2 8.5 7.1 15.2 9.1 5.4 1.7 8.8 2 17.1 1.7 9.2-.3 11-.6 16.2-3.3 16-8.2 16.7-29.8 1.2-37.6-2.2-1.2-8.3-3.2-13.6-4.5-15.2-3.8-17.4-5.2-15.1-9.5 2.3-4.2 13.6-3.6 22.7 1.2 3.1 1.6 5.9 2.6 6.3 2.2 3-3.8 7.8-10 8.4-11 1-1.7-7.4-7-13.9-8.8-6.9-1.9-15-2.4-21.3-1.4zm-162.8.8c-.2.2-.4 16.3-.4 35.8V226h19v-23.8l12.8-.4c14.4-.4 18.7-1.9 24-8.4 8.8-10.6 5.9-28.4-5.6-35.1-4.7-2.8-4.8-2.8-27-3.3-12.3-.3-22.6-.3-22.8-.1zm36.5 16.2c5.7 2 7.1 9.2 2.5 12.8-2.3 1.8-4.1 2.1-11.5 2.1H39v-16h7.4c4 0 8.7.5 10.5 1.1zm165.1-8.9v7.7l9.8.3 9.7.3.3 27.7.2 27.8h18l.2-27.7.3-27.8 9.8-.3 9.7-.3v-14.8l-29-.3-29-.3v7.7z"/></svg>