<svg version="1.0" xmlns="http://www.w3.org/2000/svg" width="682.667" height="682.667" viewBox="0 0 512 512"><path d="M0 38.5V77h512V0H0v38.5zm32.5 94.7c-.3.7-.4 28.1-.3 60.8l.3 59.5h31l.5-38.3.5-38.4 10.9 28.4c6 15.6 12.7 32.9 14.9 38.6l3.9 10.3 7-.3 7-.3 14.7-37.7c8-20.7 14.9-38 15.4-38.4.4-.4.7 16.7.7 37.9V254h31V132l-21.7.2-21.8.3-3.2 8c-1.7 4.4-7.3 18.9-12.5 32.2-5.1 13.3-9.6 23.9-10 23.5-.4-.4-4.7-11.3-9.6-24.2-5-12.9-10.4-27.2-12.2-31.8l-3.2-8.2H54.4c-16.3 0-21.6.3-21.9 1.2zm154 0c-.3.7-.4 28.1-.3 60.8l.3 59.5h31l.3-60.8.2-60.7h-15.5c-11.5 0-15.7.3-16 1.2zM234 193v61h31v-34.5c0-19 .3-34.5.8-34.5.4.1 11.4 14.8 24.5 32.8 13.1 18 24.4 33.5 25.1 34.5 1.2 1.6 3 1.7 16.2 1.5l14.9-.3v-121l-15.7-.3-15.8-.3-.2 33.1-.3 33-24-32.7-24-32.8-16.3-.3-16.2-.2v61zm129 0v61h31v-34.5c0-19 .3-34.5.8-34.5.4.1 12 15.6 25.7 34.5l25 34.5 15-.3 15-.2v-121l-15.7-.3-15.8-.3-.2 33.1-.3 33-24-32.8-24.1-32.7-16.2-.3-16.2-.2v61zm-171 78.7c-5.2.9-15.7 4.6-21 7.5-12.9 7.1-23.5 19.8-28.1 33.9-2.1 6.4-2.4 9.3-2.4 21.4 0 11.1.4 15.2 1.9 19.5 7.1 21 23.8 36.4 45.1 41.6 10.3 2.6 26.8 2.4 37.1-.5 22.2-6.1 38.3-22.2 44-44.2 2.3-8.6 2.3-25.2 0-33.9-5.8-21.7-23-38.3-45.2-44-7.3-1.9-23.9-2.6-31.4-1.3zm28.8 30.8c6.5 3.5 10.6 8.1 14.1 15.5 2.3 4.9 2.6 6.7 2.6 16.5 0 10-.3 11.5-2.8 16.7-3.6 7.3-11.1 14.1-18 16.4-7.8 2.6-18.2 2.2-24.9-.8-7.7-3.6-12.3-8-16-15.6-3.1-6.3-3.3-7.3-3.3-17.2.1-11.2 1.1-14.9 6.2-22.3 3.2-4.6 9.9-9.5 15.7-11.3 2.5-.9 7.4-1.3 12.6-1.1 7.2.3 9.3.8 13.8 3.2zm88.7-30.5c-5.9 1.2-14.1 4.7-19 8-10.3 7.1-15.8 17.1-15.9 29-.1 9.5 1.6 15.4 6.3 21.6 6.6 8.8 16.5 13.5 40.2 18.9 20.6 4.7 24.5 7.2 21.9 13.5-2.5 6-11 8.4-23.8 6.8-9.4-1.1-18.1-4.6-25.7-10.3-3.3-2.5-6.2-4.5-6.5-4.5-1.3.2-16.1 22.4-15.6 23.6.8 2 8.2 7.1 15.9 11 10.4 5.3 21.9 7.7 36.7 7.8 19.5 0 32-4.2 41.7-14 7.2-7.5 9.7-14.1 9.8-26.4 0-8.4-.3-10.1-2.8-15.2-5.7-11.7-16.3-17.7-42.2-24-18.4-4.5-22.8-6.7-23.3-11.4-1.2-12 26-10.7 46 2.3 1.5.9 2.9 1.5 3.1 1.3.2-.3 4.1-5.4 8.6-11.3 9.4-12.3 9.6-10.6-1.2-17.3-11.1-6.9-24.9-10.4-40.2-10.3-5.5.1-11.8.5-14 .9zM33 334v61h32v-40.8l21.3-.4 21.2-.3 6.5-3.1c15.2-7.2 23-19.7 23-36.9 0-15.9-7.5-29.1-20.3-35.6-8.7-4.5-12.3-4.9-48.9-4.9H33v61zm65.7-31.5c6.9 4.1 8.2 14.1 2.5 19.7-3.8 3.9-8.2 4.7-23.4 4.8H65v-27.2l15.3.4c12.9.2 15.7.6 18.4 2.3zm278.3-16V300h34v95h32v-95h34v-27H377v13.5zM0 473.5V512h512v-77H0v38.5z"/></svg>