<?xml version="1.0" standalone="no"?>
<!DOCTYPE svg PUBLIC "-//W3C//DTD SVG 20010904//EN"
 "http://www.w3.org/TR/2001/REC-SVG-20010904/DTD/svg10.dtd">
<svg version="1.0" xmlns="http://www.w3.org/2000/svg"
 width="300.000000pt" height="300.000000pt" viewBox="0 0 300.000000 300.000000"
 preserveAspectRatio="xMidYMid meet">
<metadata>
Created by potrace 1.11, written by Peter Selinger 2001-2013
</metadata>
<g transform="translate(0.000000,300.000000) scale(0.100000,-0.100000)"
fill="#000000" stroke="none">
<path d="M200 1925 l0 -355 90 0 90 0 0 222 c0 122 2 219 5 216 3 -3 43 -101
88 -219 l83 -214 44 0 44 0 85 220 86 220 3 -222 2 -223 90 0 90 0 0 355 0
356 -126 -3 -127 -3 -63 -165 c-35 -91 -69 -176 -75 -190 -10 -22 -17 -6 -83
165 l-73 190 -126 3 -127 3 0 -356z"/>
<path d="M1100 1925 l0 -355 90 0 90 0 0 355 0 355 -90 0 -90 0 0 -355z"/>
<path d="M1380 1925 l0 -355 90 0 90 0 2 201 3 201 145 -199 146 -198 92 -3
92 -3 0 356 0 356 -92 -3 -93 -3 -5 -188 -5 -189 -139 191 -140 191 -93 0 -93
0 0 -355z"/>
<path d="M2137 2273 c-4 -3 -7 -163 -7 -355 l0 -348 95 0 95 0 2 199 3 198
145 -198 144 -199 88 0 88 0 0 355 0 355 -90 0 -90 0 0 -192 -1 -193 -22 26
c-12 14 -77 101 -144 192 l-123 167 -88 0 c-49 0 -92 -3 -95 -7z"/>
<path d="M1120 1457 c-80 -18 -145 -55 -196 -109 -73 -78 -89 -124 -89 -253 0
-106 1 -112 34 -173 41 -75 94 -125 170 -161 50 -23 68 -26 171 -26 103 0 121
3 170 26 128 61 200 167 208 308 8 135 -42 247 -142 322 -84 64 -218 91 -326
66z m166 -168 c67 -20 117 -103 117 -194 0 -124 -77 -205 -193 -205 -133 0
-221 119 -191 256 13 56 53 113 95 136 47 26 102 28 172 7z"/>
<path d="M1832 1459 c-92 -15 -176 -75 -201 -142 -18 -46 -13 -133 9 -177 33
-65 87 -94 241 -129 104 -25 139 -42 139 -70 0 -74 -156 -77 -276 -5 -31 19
-60 31 -64 27 -24 -29 -80 -115 -80 -123 0 -20 85 -71 152 -91 54 -17 88 -20
171 -17 92 3 110 6 162 33 160 82 167 298 12 376 -22 12 -83 32 -136 45 -152
38 -174 52 -151 95 23 42 136 36 227 -12 31 -16 59 -26 63 -22 30 38 78 100
84 110 10 17 -74 70 -139 88 -69 19 -150 24 -213 14z"/>
<path d="M204 1451 c-2 -2 -4 -163 -4 -358 l0 -353 95 0 95 0 0 119 0 119 128
4 c144 4 187 19 240 84 88 106 59 284 -56 351 -47 28 -48 28 -270 33 -123 3
-226 3 -228 1z m365 -162 c57 -20 71 -92 25 -128 -23 -18 -41 -21 -115 -21
l-89 0 0 80 0 80 74 0 c40 0 87 -5 105 -11z"/>
<path d="M2220 1378 l0 -77 98 -3 97 -3 3 -277 2 -278 90 0 90 0 2 277 3 278
98 3 97 3 0 74 0 74 -290 3 -290 3 0 -77z"/>
</g>
</svg>
